<?xml version="1.0" standalone="no"?>
<!DOCTYPE svg PUBLIC "-//W3C//DTD SVG 20010904//EN"
 "http://www.w3.org/TR/2001/REC-SVG-20010904/DTD/svg10.dtd">
<svg version="1.0" xmlns="http://www.w3.org/2000/svg"
 width="249.640734pt" height="262.761652pt" viewBox="0 0 249.640734 262.761652"
 preserveAspectRatio="xMidYMid meet">
<metadata>
Created by potrace 1.12, written by Peter Selinger 2001-2015
</metadata>
<g transform="translate(-32.145629,279.923551) scale(0.100000,-0.100000)"
fill="#000000" stroke="none">
<path d="M1425 2787 c-11 -7 -31 -19 -45 -28 -14 -9 -46 -28 -71 -42 -26 -14
-167 -96 -315 -183 -148 -86 -295 -172 -327 -190 -54 -31 -278 -163 -322 -189
-20 -12 -20 -25 -23 -661 -2 -357 1 -654 5 -660 8 -11 173 -108 683 -404 146
-84 301 -175 345 -202 43 -26 86 -48 93 -48 8 0 124 64 257 142 l243 142 -31
38 c-17 21 -37 38 -45 38 -8 0 -92 -45 -187 -100 -95 -55 -175 -100 -179 -100
-3 0 -6 49 -6 109 l0 110 58 6 c91 11 179 33 253 64 l68 29 58 -62 c32 -33
129 -138 216 -232 92 -100 170 -177 188 -185 26 -10 38 -10 72 2 52 18 80 56
80 107 0 49 1 48 -216 282 -95 102 -180 195 -191 208 -19 21 -18 22 15 59 102
114 178 314 178 468 l0 40 -54 -60 c-40 -45 -57 -72 -66 -110 -40 -176 -175
-347 -334 -428 -28 -14 -91 -37 -140 -53 -80 -25 -105 -28 -230 -28 -165 0
-251 19 -379 87 -93 49 -204 154 -254 239 -66 112 -83 183 -93 388 -6 102 -8
264 -7 360 l3 175 60 38 c68 43 619 364 651 379 17 8 30 5 60 -15 22 -13 116
-68 209 -122 94 -53 239 -138 323 -188 l152 -90 0 -49 0 -49 60 63 c32 35 59
68 60 74 0 6 -11 16 -25 22 -14 6 -112 63 -218 125 -105 63 -214 126 -242 141
-27 16 -75 43 -105 61 -30 18 -89 53 -130 77 l-75 44 -3 107 c-1 59 0 107 3
107 3 0 24 -12 48 -27 38 -24 156 -93 247 -145 19 -11 98 -57 175 -102 77 -46
212 -125 299 -176 l159 -92 33 38 c18 22 33 42 34 46 0 6 -95 68 -106 68 -3 0
-28 15 -57 33 -29 19 -72 45 -97 59 -25 14 -85 50 -135 79 -49 29 -128 74
-175 101 -47 27 -110 64 -140 82 -228 136 -332 196 -340 195 -3 0 -14 -6 -25
-12z m-25 -255 l0 -108 -92 -53 c-142 -82 -264 -153 -363 -211 -49 -29 -110
-64 -135 -78 -25 -14 -63 -36 -85 -50 -22 -14 -45 -25 -51 -25 -15 0 -174 93
-174 102 0 4 26 22 58 40 31 19 93 55 137 81 44 27 96 57 115 68 19 10 87 49
150 87 63 37 156 91 205 120 50 29 121 71 159 94 39 23 71 41 73 41 2 0 3 -49
3 -108z m-860 -571 l85 -48 6 -364 c4 -259 9 -377 19 -408 12 -40 12 -45 -6
-58 -23 -17 -192 -113 -199 -113 -3 0 -5 234 -5 520 0 286 3 520 8 520 4 0 45
-22 92 -49z m170 -979 c0 -17 88 -138 130 -180 129 -128 294 -209 471 -231 46
-6 85 -11 86 -11 2 0 3 -50 3 -110 l0 -111 -32 17 c-18 9 -91 51 -163 94 -125
74 -560 328 -657 384 -27 15 -48 30 -48 35 0 7 188 120 203 121 4 0 7 -4 7 -8z"/>
<path d="M2539 2093 c-62 -70 -136 -153 -164 -183 -64 -70 -182 -203 -226
-255 -19 -22 -36 -42 -39 -45 -3 -3 -34 -38 -69 -77 -35 -40 -68 -73 -72 -73
-5 0 -55 46 -111 101 l-103 101 -63 -68 c-34 -38 -67 -76 -72 -85 -7 -12 30
-54 173 -197 l182 -182 130 147 c72 81 187 210 256 288 69 77 201 223 292 325
l165 185 -76 70 c-41 39 -78 71 -82 73 -4 2 -58 -55 -121 -125z"/>
<path d="M1090 1440 l0 -520 50 0 50 0 0 210 c0 116 3 210 6 210 4 0 39 -28
79 -62 39 -35 123 -106 185 -158 62 -52 141 -119 174 -147 l61 -53 80 0 c67 0
77 2 65 13 -19 18 -320 273 -473 401 -65 54 -116 102 -115 106 3 8 67 63 363
315 116 98 216 183 223 190 10 9 -4 11 -66 10 -91 -2 -65 14 -277 -170 -174
-151 -288 -245 -297 -245 -5 0 -8 95 -8 210 l0 210 -50 0 -50 0 0 -520z"/>
<path d="M2521 1614 l-51 -56 0 -327 0 -328 -37 -25 c-21 -13 -77 -47 -125
-74 -49 -27 -88 -51 -88 -54 0 -3 18 -23 39 -44 l39 -38 84 47 c45 26 103 59
128 73 25 13 50 29 56 34 9 6 12 127 13 428 1 231 0 420 -3 420 -2 0 -27 -25
-55 -56z"/>
</g>
</svg>
